<?xml version="1.0" encoding="UTF-8"?><svg width="24px" height="24px" viewBox="0 0 24 24" stroke-width="1.5" fill="none" xmlns="http://www.w3.org/2000/svg" color="#000000"><path d="M3 20.4V3.6C3 3.26863 3.26863 3 3.6 3H20.4C20.7314 3 21 3.26863 21 3.6V20.4C21 20.7314 20.7314 21 20.4 21H3.6C3.26863 21 3 20.7314 3 20.4Z" stroke="#000000" stroke-width="1.5"></path><path d="M3 5C4.10456 5 5 4.10456 5 3C5 1.89544 4.10456 1 3 1C1.89544 1 1 1.89544 1 3C1 4.10456 1.89544 5 3 5Z" fill="#000000" stroke="#000000" stroke-width="1.5" stroke-linecap="round" stroke-linejoin="round"></path><path d="M21 23C22.10456 23 23 22.10456 23 21C23 19.89544 22.10456 19 21 19C19.89544 19 19 19.89544 19 21C19 22.10456 19.89544 23 21 23Z" fill="#000000" stroke="#000000" stroke-width="1.5" stroke-linecap="round" stroke-linejoin="round"></path></svg>